<?xml version="1.0" standalone="yes"?>
<svg xmlns="http://www.w3.org/2000/svg" width="327" height="76">
<path style="fill:#010101; stroke:none;" d="M0 0L0 56L26 56C25.9498 70.2147 10.7068 66 0 66L0 76L327 76L327 0L0 0z"/>
<path style="fill:#dfe0e0; stroke:none;" d="M1 11C4.41983 18.3334 12.4348 25.3754 19 30L19 31L6 44L20 31L20 30L2 11C10.9872 11 15.2168 11.9506 23 16C17.8834 8.97215 8.94853 8.65053 1 11M34 16C41.2809 11.1075 46.4002 11 55 11C47.7303 7.94951 38.6076 9.6712 34 16z"/>
<path style="fill:#e1e3e3; stroke:none;" d="M2 11C5.41982 18.3334 13.4348 25.3754 20 30L20 31C13.4348 35.6246 5.41982 42.6666 2 50C6.54193 51.3425 14.4882 52.4038 18.5718 49.3966C21.4663 47.265 24.3757 40.629 28.2963 40.4614C32.4879 40.2823 35.7693 47.2017 39.0147 49.2577C43.4724 52.0817 49.9532 51 55 51L39.0556 31L55 11C43.2273 11 35.0718 11.2956 29 23C20.8383 12.3751 14.7321 11 2 11z"/>
<path style="fill:#dfe0e0; stroke:none;" d="M54.3333 12.6667L54.6667 13.3333L54.3333 12.6667M53 14L54 15L53 14M52 15L53 16L52 15M51 16L52 17L51 16M50 17L51 18L50 17M154 17L154 18L161 18L161 59L162 59L162 17L154 17M184 17L184 18L189 18L184 17M49 18L50 19L49 18z"/>
<path style="fill:#e1e3e3; stroke:none;" d="M82 18L93.7377 39L82 59C91.1874 58.9675 96.2656 52.5663 99 44L100 44C102.978 51.8683 107.029 58.894 116 59L103 39L116 18C107.178 18.1043 103.529 24.5404 100 32L98 32C95.3337 23.6327 90.9679 18.0317 82 18z"/>
<path style="fill:#dfe0e0; stroke:none;" d="M90 18L91 19L90 18M108 18L109 19L108 18M116.333 18.6667L116.667 19.3333L116.333 18.6667z"/>
<path style="fill:#e1e3e3; stroke:none;" d="M154 18L154 59L161 59L161 18L154 18M205 47L198 45C196.804 47.0208 195.701 48.8769 193.812 50.3549C177.016 63.4952 165.925 28.2318 185 24.4097C193.604 22.6857 196.377 32.5116 205 31C198.48 9.29993 167.85 16.4868 167.403 38C166.959 59.3428 198.164 69.5401 205 47z"/>
<path style="fill:#dfe0e0; stroke:none;" d="M48 19L49 20L48 19M82 19L83 20L82 19M107 19L108 20L107 19M177 19L178 20L177 19M196 19L197 20L196 19M47 20L48 21L47 20M83.3333 20.6667L83.6667 21.3333L83.3333 20.6667M91 20L92 21L91 20M115.333 20.6667L115.667 21.3333L115.333 20.6667z"/>
<path style="fill:#e7e7e7; stroke:none;" d="M29 21L30 22L29 21z"/>
<path style="fill:#dfe0e0; stroke:none;" d="M46 21L47 22L46 21M92 21L93 22L92 21M106 21L107 22L106 21M174 21L175 22L174 21M199 21L200 22L199 21M28 22L29 23L28 22M45 22L46 23L45 22M84 22L85 23L84 22M105 22L106 23L105 22M114 22L115 23L114 22M173 22L174 23L173 22M200 22L201 23L200 22M44 23L45 24L44 23M85.3333 23.6667L85.6667 24.3333L85.3333 23.6667M93 23L94 24L93 23M113.333 23.6667L113.667 24.3333L113.333 23.6667M172 23L173 24L172 23M201 23L201 25L203 25L201 23M43 24L44 25L43 24M94 24L95 25L94 24z"/>
<path style="fill:#dfe5e5; stroke:none;" d="M104 24L105 25L104 24z"/>
<path style="fill:#dfe0e0; stroke:none;" d="M171 24L172 25L171 24M183 24L183 25L191 25L183 24M42 25L43 26L42 25M86 25L87 26L86 25M181 25L182 26L181 25M192 25L193 26L192 25M41 26L42 27L41 26M87.3333 26.6667L87.6667 27.3333L87.3333 26.6667M95 26L96 27L95 26M170 26L171 27L170 26M179 26L180 27L179 26M194 26L195 27L194 26M203 26L204 27L203 26M40 27L41 28L40 27M96 27L97 28L96 27M102 27L103 28L102 27M111 27L112 28L111 27M133.667 27.3333L134.333 27.6667L133.667 27.3333M178 27L179 28L178 27M195 27L196 28L195 27M223 27L223 28L226 28L223 27M309.667 27.3333L310.333 27.6667L309.667 27.3333M39 28L40 29L39 28M88 28L89 29L88 28z"/>
<path style="fill:#e1e3e3; stroke:none;" d="M147 51C137.989 47.484 131.127 58.021 126 45L148 46C147.954 40.5133 147.374 34.5358 142.786 30.804C133.72 23.4287 120.549 30.0786 119.185 41C117.134 57.4236 140.878 68.4891 147 51z"/>
<path style="fill:#dfe0e0; stroke:none;" d="M139 28L140 29L139 28M169 28L170 29L169 28M177.333 28.6667L177.667 29.3333L177.333 28.6667M204 28L205 29L204 28z"/>
<path style="fill:#e1e3e3; stroke:none;" d="M218.834 28.733C200.927 34.4842 211.024 65.7293 229.83 59.0069C248.565 52.3099 238.235 22.5018 218.834 28.733z"/>
<path style="fill:#dfe0e0; stroke:none;" d="M221 28L222 29L221 28M227 28L228 29L227 28M230 28L231 29L230 28M245 28L246 29L245 28z"/>
<path style="fill:#e1e3e3; stroke:none;" d="M245 59L253 59C253 53.4551 249.92 35.4726 258.025 34.662C266.991 33.7656 264 53.7604 264 59L271 59C271 53.7301 267.999 33.7742 276.996 34.662C285.026 35.4543 282 53.4777 282 59L289 59C289 48.7098 292.559 24.0406 274.987 28.4398C272.439 29.0776 270.229 30.678 268 32C264.5 26.0142 257.017 27.9516 252 31C249.414 27.0249 245.492 28.2604 245.059 33.0193C244.283 41.54 245 50.4423 245 59z"/>
<path style="fill:#dfe0e0; stroke:none;" d="M251 28L252 29L251 28M262 28L263 29L262 28M280 28L281 29L280 28M283 28L284 29L283 28z"/>
<path style="fill:#dfe5e5; stroke:none;" d="M296 28L297 29L296 28z"/>
<path style="fill:#e1e3e3; stroke:none;" d="M296 72L303 72L303 58C331.623 67.0703 329.406 18.5046 302 30C297.187 24.5731 296.007 33.5934 296 37L296 72z"/>
<path style="fill:#dfe0e0; stroke:none;" d="M302 28L304 30L302 28M307 28L308 29L307 28M38 29L39 30L38 29M89.3333 29.6667L89.6667 30.3333L89.3333 29.6667M97 29L98 30L97 29M141 29L142 30L141 29M196 29L197 30L196 29M216 29L217 30L216 29M232 29L233 30L232 29M254 29L255 30L254 29z"/>
<path style="fill:#e7e7e7; stroke:none;" d="M302 29L303 30L302 29z"/>
<path style="fill:#dfe0e0; stroke:none;" d="M317 29L318 30L317 29M37 30L48 41L37 30M100 30L101 31L100 30M109 30L110 31L109 30M124 30L125 31L124 30M142 30L143 31L142 30M168.333 30.6667L168.667 31.3333L168.333 30.6667M197.333 30.6667L197.667 31.3333L197.333 30.6667M233 30L234 31L233 30M252 30L253 31L252 30M90 31L91 32L90 31M98 31L99 32L98 31M123 31L124 32L123 31M202.667 31.3333L203.333 31.6667L202.667 31.3333M268 31L269 32L268 31M319.667 31.3333L320.333 31.6667L319.667 31.3333M91.3333 32.6667L91.6667 33.3333L91.3333 32.6667M122 32L123 33L122 32M198 32L198 33L201 33L198 32M287 32L288 33L287 32M107 33L108 34L107 33M121 33L122 34L121 33M145 33L146 34L145 33M212 33L213 34L212 33M236 33L237 34L236 33M92 34L93 35L92 34M128 37L132 35L128 37z"/>
<path style="fill:#010101; stroke:none;" d="M127 40L140 40C137.719 32.32 130.139 33.6368 127 40z"/>
<path style="fill:#dfe0e0; stroke:none;" d="M136.667 34.3333L137.333 34.6667L136.667 34.3333M175 34L176 35L175 34M211 34L212 35L211 34M222 34L222 35L227 35L222 34M237 34L238 35L237 34M256.667 34.3333L257.333 34.6667L256.667 34.3333M259.667 34.3333L260.333 34.6667L259.667 34.3333M274.667 34.3333L275.333 34.6667L274.667 34.3333M277.667 34.3333L278.333 34.6667L277.667 34.3333M288 34L288 37L289 37L288 34M304 37L308 35L304 37z"/>
<path style="fill:#010101; stroke:none;" d="M308.019 34.8472C299.47 37.3821 301.846 56.1726 311.956 52.392C320.23 49.2978 317.52 32.0299 308.019 34.8472z"/>
<path style="fill:#dfe0e0; stroke:none;" d="M311.667 34.3333L312.333 34.6667L311.667 34.3333M322 34L323 35L322 34M93.3333 35.6667L93.6667 36.3333L93.3333 35.6667M120 35L121 36L120 35M138 35L139 36L138 35M146 35L147 36L146 35M167 35L168 36L167 35M220 35L217 41L218 41L220 35z"/>
<path style="fill:#010101; stroke:none;" d="M221.133 36.0285C213.089 40.6107 218.526 57.0934 227.891 51.9684C236.117 47.4671 230.847 30.496 221.133 36.0285z"/>
<path style="fill:#dfe0e0; stroke:none;" d="M228.667 35.3333L229.333 35.6667L228.667 35.3333M254 35L255 36L254 35M261 35L263 37L263 35L261 35M272 35L273 36L272 35M280 35L281 36L280 35M313 35L314 36L313 35M105 36L106 37L105 36M139 36L140 37L139 36M210.333 36.6667L210.667 37.3333L210.333 36.6667M238 36L239 37L238 36M281 36L281 39L282 39L281 36M323.333 36.6667L323.667 37.3333L323.333 36.6667M94 37L95 38L94 37M119.333 37.6667L119.667 38.3333L119.333 37.6667M147.333 37.6667L147.667 38.3333L147.333 37.6667M230 37L231 38L230 37M253 37L254 38L253 37M263 37L263 40L264 40L263 37M271 37L272 38L271 37M315 37L316 38L315 37M103 38L104 39L103 38M167.333 38.6667L167.667 39.3333L167.333 38.6667M231.333 38.6667L231.667 39.3333L231.333 38.6667M252.333 38.6667L252.667 39.3333L252.333 38.6667M316.333 38.6667L316.667 39.3333L316.333 38.6667M27 39L27 40L30 40L27 39M94 39L95 40L94 39M104 39L105 40L104 39M126.333 39.6667L126.667 40.3333L126.333 39.6667M140 39L141 40L140 39M239 39L239 42L240 42L239 39M302 39L302 43L303 43L302 39z"/>
<path style="fill:#e7e7e7; stroke:none;" d="M324 39L325 40L324 39z"/>
<path style="fill:#dfe0e0; stroke:none;" d="M30 40L31 41L30 40M93 40L94 41L93 40M174 40L175 41L174 40M209 40L210 41L209 40M324 40L324 49L325 49L324 40M24 44L27 41L24 44M31 41L34 45L31 41M105 41L106 42L105 41M167.333 41.6667L167.667 42.3333L167.333 41.6667M232 41L232 46L233 46L232 41M92 42L93 43L92 42M106 42L107 43L106 42M118 42L118 47L119 47L118 42M209 42L209 46L210 46L209 42M317 42L317 45L318 45L317 42M91 43L92 44L91 43M175.333 43.6667L175.667 44.3333L175.333 43.6667M239.333 43.6667L239.667 44.3333L239.333 43.6667z"/>
<path style="fill:#e7e7e7; stroke:none;" d="M302.333 43.6667L302.667 44.3333L302.333 43.6667z"/>
<path style="fill:#dfe0e0; stroke:none;" d="M23 44L24 45L23 44M99.3333 44.6667L99.6667 45.3333L99.3333 44.6667M107 44L108 45L107 44M22 45L23 46L22 45M34 45L35 46L34 45M90 45L91 46L90 45M108 45L109 46L108 45M126 45L127 46L126 45M168 45L168 48L169 48L168 45M201 45L202 46L201 45M216 45L217 46L216 45M302 45L302 48L303 48L302 45M21 46L22 47L21 46M35 46L36 47L35 46M89 46L90 47L89 46M98 46L99 47L98 46M100 46L101 47L100 46z"/>
<path style="fill:#e7e7e7; stroke:none;" d="M126 46L127 47L126 46z"/>
<path style="fill:#dfe0e0; stroke:none;" d="M176.333 46.6667L176.667 47.3333L176.333 46.6667M197 46L198 47L197 46M203 46L204 47L203 46z"/>
<path style="fill:#dfe5e5; stroke:none;" d="M204 46L205 47L204 46z"/>
<path style="fill:#dfe0e0; stroke:none;" d="M239 46L240 47L239 46M20 47L21 48L20 47M36 47L37 48L36 47M101.333 47.6667L101.667 48.3333L101.333 47.6667M109 47L110 48L109 47M209 47L210 48L209 47z"/>
<path style="fill:#e7e7e7; stroke:none;" d="M217 47L218 48L217 47z"/>
<path style="fill:#dfe0e0; stroke:none;" d="M19 48L20 49L19 48M37 48L38 49L37 48M110 48L111 49L110 48M169.333 48.6667L169.667 49.3333L169.333 48.6667M177 48L177 50L179 50L177 48M217 48L218 49L217 48M231 48L232 49L231 48M239 48L240 49L239 48M1 49L1 51L3 51L1 49M38 49L39 50L38 49M55.3333 49.6667L55.6667 50.3333L55.3333 49.6667M87 49L88 50L87 49M96 49L97 50L96 49M102 49L103 50L102 49M119.333 49.6667L119.667 50.3333L119.333 49.6667M127 49L128 50L127 49M140 49L141 50L140 49M143 49L144 50L143 49M195 49L196 50L195 49M204 49L205 50L204 49M210.333 49.6667L210.667 50.3333L210.333 49.6667M303 49L304 50L303 49M323 49L323 52L324 52L323 49M39.6667 50.3333L40.3333 50.6667L39.6667 50.3333M103.333 50.6667L103.667 51.3333L103.333 50.6667M111 50L112 51L111 50M146 50L147 51L146 50M179 50L180 51L179 50M194 50L195 51L194 50M218 50L219 51L218 50M230 50L231 51L230 50M315 50L316 51L315 50M112 51L113 52L112 51M120.333 51.6667L120.667 52.3333L120.333 51.6667z"/>
<path style="fill:#e7e7e7; stroke:none;" d="M147 51L148 52L147 51z"/>
<path style="fill:#dfe0e0; stroke:none;" d="M170 51L171 52L170 51M180 51L181 52L180 51M203 51L204 52L203 51M219 51L220 52L219 51M229 51L230 52L229 51M238 51L239 52L238 51M304 51L305 52L304 51M314 51L315 52L314 51M85 52L86 53L85 52M94 52L95 53L94 52M104 52L105 53L104 52M130 52L131 53L130 52M147 52L148 53L147 52M171 52L172 53L171 52z"/>
<path style="fill:#dfe5e5; stroke:none;" d="M182 52L183 53L182 52z"/>
<path style="fill:#dfe0e0; stroke:none;" d="M211 52L212 53L211 52M221 52L222 53L221 52M228 52L229 53L228 52M313 52L314 53L313 52M93 53L94 54L93 53M113 53L114 54L113 53M121 53L122 54L121 53M133.667 53.3333L134.333 53.6667L133.667 53.3333M146 53L147 54L146 53M172 53L174 56L172 53M186.667 53.3333L187.333 53.6667L186.667 53.3333M201 53L202 54L201 53M224.667 53.3333L225.333 53.6667L224.667 53.3333M237 53L238 54L237 53M307 53L308 54L307 53M322 53L323 54L322 53M105 54L106 55L105 54M114 54L115 55L114 54M200 54L201 55L200 54M212 54L213 55L212 54M236 54L237 55L236 54M321 54L322 55L321 54M83 55L84 56L83 55M92 55L93 56L92 55M106 55L107 56L106 55M122 55L124 57L124 55L122 55M144 55L144 57L146 55L144 55M199 55L200 56L199 55M213 55L214 56L213 55M235 55L236 56L235 55M320 55L321 56L320 55z"/>
<path style="fill:#e1e3e3; stroke:none;" d="M0 56L0 65C7.05135 65 14.9907 66.0361 21.9414 64.8519C25.227 64.292 27.2723 60.5394 24.9715 57.6034C21.6282 53.3372 5.11567 56 0 56z"/>
<path style="fill:#dfe0e0; stroke:none;" d="M25 56L26 57L25 56M31 56C31.0112 70.4692 45.778 66 57 66L57 65L32 65L31 56z"/>
<path style="fill:#e1e3e3; stroke:none;" d="M32 56L32 65L57 65C56.9532 51.7684 42.0671 56 32 56z"/>
<path style="fill:#dfe0e0; stroke:none;" d="M56 56L57 57L56 56M91 56L92 57L91 56M115 56L116 57L115 56M175 56L176 57L175 56M198 56L199 57L198 56M214 56L215 57L214 56M234 56L235 57L234 56M319 56L320 57L319 56M107 57L108 58L107 57M116.333 57.6667L116.667 58.3333L116.333 57.6667M125 57L126 58L125 57M142 57L143 58L142 57M176.667 57.3333L177.333 57.6667L176.667 57.3333M197 57L198 58L197 57M215.667 57.3333L216.333 57.6667L215.667 57.3333M232.667 57.3333L233.333 57.6667L232.667 57.3333M318 57L319 58L318 57M81 58L82 59L81 58M90 58L91 59L90 58M108 58L109 59L108 58M126.667 58.3333L127.333 58.6667L126.667 58.3333M140.667 58.3333L141.333 58.6667L140.667 58.3333M178.667 58.3333L179.333 58.6667L178.667 58.3333M194.667 58.3333L195.333 58.6667L194.667 58.3333M217 58L218 59L217 58M304 58L305 59L304 58M317 58L318 59L317 58M129.667 59.3333L130.333 59.6667L129.667 59.3333M133 59L134 60L133 59M135 59L136 60L135 59M137.667 59.3333L138.333 59.6667L137.667 59.3333M181 59L181 60L184 60L181 59M188 59L189 60L188 59M191.667 59.3333L192.333 59.6667L191.667 59.3333M219 59L219 60L222 60L219 59M228.667 59.3333L229.333 59.6667L228.667 59.3333M306.667 59.3333L307.333 59.6667L306.667 59.3333M313 59L313 60L316 60L313 59M25 64L26 65L25 64M0 65L0 66L25 66L0 65M296 72L296 73L303 73L296 72z"/>
</svg>
