<svg width="45" height="59" viewBox="0 0 45 59" fill="none" xmlns="http://www.w3.org/2000/svg">
<path id="Vector 1 (Stroke)" fill-rule="evenodd" clip-rule="evenodd" d="M28.9063 8.10168L8.36619 30.8284L16.3079 29.0115C17.9529 28.6352 19.4607 30.0369 19.215 31.7141L16.4205 50.7893L36.7207 28.4525L29.3006 30.0204C27.6835 30.362 26.2145 28.9976 26.4267 27.3509L28.9063 8.10168ZM29.7438 0.798122C31.3231 -0.94928 34.202 0.38809 33.9005 2.72895L30.9953 25.2814L41.5113 23.0593C43.7922 22.5774 45.349 25.316 43.7773 27.0454L15.4576 58.2063C13.8613 59.9627 10.9664 58.5822 11.3111 56.2289L14.597 33.7998L3.52852 36.3321C1.23934 36.8558 -0.359233 34.1059 1.21915 32.3595L29.7438 0.798122Z" fill="#267A89"/>
</svg>
